<svg width="40" height="40" viewBox="0 0 40 40" fill="none" xmlns="http://www.w3.org/2000/svg">
<rect width="40" height="40" rx="8.4" fill="url(#paint0_linear_9_8)"/>
<rect x="1.05" y="1.05" width="37.9" height="37.9" rx="7.35" stroke="white" stroke-opacity="0.15" stroke-width="2.1"/>
<g clip-path="url(#clip0_9_8)">
<path d="M32.3889 14.2888C32.3887 13.8226 32.2885 13.4107 32.086 13.0572C31.8871 12.7095 31.5891 12.4181 31.1895 12.1877C27.8905 10.2942 24.5884 8.40642 21.2905 6.51094C20.4014 5.99999 19.5394 6.01871 18.6569 6.537C17.3438 7.30778 10.7697 11.0571 8.81067 12.1867C8.00389 12.6517 7.61132 13.3632 7.61112 14.2879C7.60986 18.0959 7.61112 21.904 7.60986 25.712C7.60986 26.1679 7.70595 26.5719 7.89957 26.9201C8.09862 27.2782 8.40074 27.5776 8.8096 27.8132C10.7687 28.9428 17.3437 32.6918 18.6565 33.4629C19.5394 33.9815 20.4014 34 21.2908 33.4889C24.5888 31.5934 27.8911 29.7056 31.1905 27.8121C31.5994 27.5766 31.9015 27.277 32.1006 26.9191C32.2939 26.5709 32.3902 26.167 32.3902 25.7109C32.3902 25.7109 32.3902 18.0969 32.3889 14.2888Z" fill="#A179DC"/>
<path d="M20.0379 19.9628L7.89957 26.9201C8.09862 27.2783 8.40073 27.5776 8.8096 27.8132C10.7687 28.9428 17.3437 32.6918 18.6565 33.4629C19.5394 33.9815 20.4014 34 21.2908 33.4889C24.5888 31.5934 27.8911 29.7056 31.1905 27.8121C31.5994 27.5766 31.9015 27.277 32.1005 26.9191L20.0379 19.9628Z" fill="#280068"/>
<path d="M32.3889 14.2888C32.3887 13.8226 32.2885 13.4107 32.086 13.0572L20.0379 19.9629L32.1005 26.9191C32.2939 26.5709 32.3899 26.167 32.3901 25.7109C32.3901 25.7109 32.3901 18.0969 32.3889 14.2888Z" fill="#390091"/>
<path d="M27.1846 17.362V18.6625H28.491V17.362H29.1442V18.6625H30.4506V19.3127H29.1442V20.6131H30.4506V21.2633H29.1442V22.5637H28.491V21.2633H27.1846V22.5637H26.5314V21.2633H25.2251V20.6131H26.5314V19.3127H25.2251V18.6625H26.5314V17.362H27.1846ZM28.491 19.3126H27.1846V20.6131H28.491V19.3126Z" fill="white"/>
<path d="M20.0646 10.831C23.472 10.831 26.4469 12.6731 28.0404 15.4113L28.0249 15.3849L24.0158 17.6827C23.2259 16.3515 21.778 15.453 20.1168 15.4345L20.0645 15.4342C17.5315 15.4342 15.478 17.4784 15.478 19.9999C15.4771 20.7946 15.6857 21.5757 16.0829 22.2651C16.8735 23.639 18.3597 24.5657 20.0646 24.5657C21.78 24.5657 23.2747 23.6273 24.0612 22.2387L24.0421 22.272L28.0452 24.5804C26.4691 27.2954 23.5349 29.1318 20.1672 29.1684L20.0646 29.169C16.6464 29.169 13.663 27.3155 12.0735 24.5629C11.2976 23.2191 10.8536 21.6612 10.8536 19.9999C10.8536 14.9361 14.9774 10.8309 20.0645 10.8309L20.0646 10.831Z" fill="white"/>
</g>
<defs>
<linearGradient id="paint0_linear_9_8" x1="20" y1="0" x2="20" y2="40" gradientUnits="userSpaceOnUse">
<stop stop-color="#9121C6" stop-opacity="0.5"/>
<stop offset="1" stop-color="#5525A2" stop-opacity="0.5"/>
</linearGradient>
<clipPath id="clip0_9_8">
<rect width="25" height="28" fill="white" transform="translate(7.5 6)"/>
</clipPath>
</defs>
</svg>
