<svg width="40" height="40" viewBox="0 0 40 40" fill="none" xmlns="http://www.w3.org/2000/svg">
<g clip-path="url(#clip0_7_11)">
<rect width="40" height="40" rx="8.4" fill="url(#paint0_linear_7_11)"/>
<g filter="url(#filter0_d_7_11)">
<path d="M20 20C20 18.7623 20.5268 17.5753 21.4645 16.7002C22.4021 15.825 23.6739 15.3333 25 15.3333C26.3261 15.3333 27.5979 15.825 28.5355 16.7002C29.4732 17.5753 30 18.7623 30 20C30 21.2377 29.4732 22.4247 28.5355 23.2998C27.5979 24.175 26.3261 24.6667 25 24.6667C23.6739 24.6667 22.4021 24.175 21.4645 23.2998C20.5268 22.4247 20 21.2377 20 20Z" fill="#1ABCFE"/>
<path d="M10 29.3333C10 28.0957 10.5268 26.9087 11.4645 26.0335C12.4021 25.1583 13.6739 24.6667 15 24.6667H20V29.3333C20 30.571 19.4732 31.758 18.5355 32.6332C17.5979 33.5083 16.3261 34 15 34C13.6739 34 12.4021 33.5083 11.4645 32.6332C10.5268 31.758 10 30.571 10 29.3333V29.3333Z" fill="#0ACF83"/>
<path d="M20 6V15.3333H25C26.3261 15.3333 27.5979 14.8417 28.5355 13.9665C29.4732 13.0913 30 11.9043 30 10.6667C30 9.42899 29.4732 8.242 28.5355 7.36683C27.5979 6.49167 26.3261 6 25 6H20Z" fill="#FF7262"/>
<path d="M10 10.6667C10 11.9043 10.5268 13.0913 11.4645 13.9665C12.4021 14.8417 13.6739 15.3333 15 15.3333H20V6H15C13.6739 6 12.4021 6.49167 11.4645 7.36683C10.5268 8.242 10 9.42899 10 10.6667V10.6667Z" fill="#F24E1E"/>
<path d="M10 20C10 21.2377 10.5268 22.4247 11.4645 23.2998C12.4021 24.175 13.6739 24.6667 15 24.6667H20V15.3333H15C13.6739 15.3333 12.4021 15.825 11.4645 16.7002C10.5268 17.5753 10 18.7623 10 20V20Z" fill="#A259FF"/>
</g>
</g>
<rect x="1.05" y="1.05" width="37.9" height="37.9" rx="7.35" stroke="white" stroke-opacity="0.15" stroke-width="2.1"/>
<defs>
<filter id="filter0_d_7_11" x="-5.71429" y="-5.71428" width="51.4286" height="51.4286" filterUnits="userSpaceOnUse" color-interpolation-filters="sRGB">
<feFlood flood-opacity="0" result="BackgroundImageFix"/>
<feColorMatrix in="SourceAlpha" type="matrix" values="0 0 0 0 0 0 0 0 0 0 0 0 0 0 0 0 0 0 127 0" result="hardAlpha"/>
<feOffset/>
<feGaussianBlur stdDeviation="2.85714"/>
<feComposite in2="hardAlpha" operator="out"/>
<feColorMatrix type="matrix" values="0 0 0 0 0 0 0 0 0 0 0 0 0 0 0 0 0 0 0.25 0"/>
<feBlend mode="normal" in2="BackgroundImageFix" result="effect1_dropShadow_7_11"/>
<feBlend mode="normal" in="SourceGraphic" in2="effect1_dropShadow_7_11" result="shape"/>
</filter>
<linearGradient id="paint0_linear_7_11" x1="20" y1="0" x2="20" y2="40" gradientUnits="userSpaceOnUse">
<stop stop-color="#167297"/>
<stop offset="0.463798" stop-color="#2A4A89"/>
<stop offset="1" stop-color="#401D79"/>
</linearGradient>
<clipPath id="clip0_7_11">
<rect width="40" height="40" rx="8.4" fill="white"/>
</clipPath>
</defs>
</svg>
