<svg width="40" height="40" viewBox="0 0 40 40" fill="none" xmlns="http://www.w3.org/2000/svg">
<g clip-path="url(#clip0_1_2)">
<rect width="40" height="40" rx="8.4" fill="url(#paint0_linear_1_2)"/>
<g filter="url(#filter0_d_1_2)">
<g clip-path="url(#clip1_1_2)">
<path d="M29.8 6H10.2C7.8804 6 6 7.8804 6 10.2V29.8C6 32.1196 7.8804 34 10.2 34H29.8C32.1196 34 34 32.1196 34 29.8V10.2C34 7.8804 32.1196 6 29.8 6Z" fill="#F7DF1E"/>
<path d="M23.7187 26.2344C24.2656 27.1641 25.0312 27.8203 26.2891 27.8203C27.3828 27.8203 28.0937 27.2734 28.0937 26.5078C28.0937 25.6328 27.3828 25.3047 26.1797 24.7578L25.5234 24.4844C23.6094 23.6641 22.3516 22.6797 22.3516 20.5469C22.3516 18.5781 23.8281 17.0469 26.1797 17.0469C27.875 17.0469 29.0781 17.6484 29.8984 19.1797L27.875 20.4922C27.4375 19.6719 26.9453 19.3437 26.1797 19.3437C25.4141 19.3437 24.9219 19.8359 24.9219 20.4922C24.9219 21.2578 25.4141 21.5859 26.5625 22.0781L27.2187 22.3516C29.4609 23.3359 30.7187 24.2656 30.7187 26.5078C30.7187 28.8594 28.8594 30.1719 26.3437 30.1719C23.8828 30.1719 22.2969 29.0234 21.5312 27.4922L23.7187 26.2344ZM14.4219 26.4531C14.8594 27.1641 15.1875 27.8203 16.1172 27.8203C16.9922 27.8203 17.5391 27.4922 17.5391 26.1797V17.1016H20.1641V26.0703C20.1641 28.8047 18.5781 30.0078 16.2266 30.0078C14.0937 30.0078 12.8906 28.9141 12.2891 27.6016L14.4219 26.4531Z" fill="black"/>
</g>
</g>
</g>
<rect x="1.05" y="1.05" width="37.9" height="37.9" rx="7.35" stroke="white" stroke-opacity="0.15" stroke-width="2.1"/>
<defs>
<filter id="filter0_d_1_2" x="-5.71428" y="-5.71428" width="51.4286" height="51.4286" filterUnits="userSpaceOnUse" color-interpolation-filters="sRGB">
<feFlood flood-opacity="0" result="BackgroundImageFix"/>
<feColorMatrix in="SourceAlpha" type="matrix" values="0 0 0 0 0 0 0 0 0 0 0 0 0 0 0 0 0 0 127 0" result="hardAlpha"/>
<feOffset/>
<feGaussianBlur stdDeviation="2.85714"/>
<feComposite in2="hardAlpha" operator="out"/>
<feColorMatrix type="matrix" values="0 0 0 0 0 0 0 0 0 0 0 0 0 0 0 0 0 0 0.25 0"/>
<feBlend mode="normal" in2="BackgroundImageFix" result="effect1_dropShadow_1_2"/>
<feBlend mode="normal" in="SourceGraphic" in2="effect1_dropShadow_1_2" result="shape"/>
</filter>
<linearGradient id="paint0_linear_1_2" x1="20" y1="0" x2="20" y2="40" gradientUnits="userSpaceOnUse">
<stop stop-color="#302B0C"/>
<stop offset="1" stop-color="#484813"/>
</linearGradient>
<clipPath id="clip0_1_2">
<rect width="40" height="40" rx="8.4" fill="white"/>
</clipPath>
<clipPath id="clip1_1_2">
<rect width="28" height="28" fill="white" transform="translate(6 6)"/>
</clipPath>
</defs>
</svg>
