<svg width="40" height="40" viewBox="0 0 40 40" fill="none" xmlns="http://www.w3.org/2000/svg">
<g clip-path="url(#clip0_1_20)">
<rect width="40" height="40" rx="8.4" fill="url(#paint0_linear_1_20)"/>
<g filter="url(#filter0_d_1_20)">
<path d="M19.9844 34.0625L19.9737 33.7515C20.3612 33.738 20.7487 33.7079 21.1265 33.6605L21.1643 33.9695C20.771 34.016 20.3719 34.047 19.9844 34.0625ZM18.8006 34.0518C18.4131 34.0315 18.012 33.9927 17.6226 33.9375L17.6662 33.6295C18.0469 33.6827 18.4344 33.7205 18.817 33.7409L18.8006 34.0518ZM22.3288 33.7719L22.2638 33.4677C22.6388 33.3873 23.0156 33.2894 23.3828 33.1771L23.4738 33.4745C23.0979 33.5888 22.7124 33.6895 22.3288 33.7719ZM16.4552 33.7205C16.0677 33.6324 15.6889 33.5268 15.315 33.4047L15.4119 33.1083C15.7771 33.2265 16.152 33.3311 16.5259 33.4173L16.4552 33.7205ZM24.5927 33.0763L24.4755 32.7857C24.8281 32.6423 25.1808 32.4815 25.5218 32.3081H25.5276L25.668 32.5852C25.3125 32.7653 24.9502 32.93 24.5888 33.0763H24.5927ZM14.2097 32.9911C13.8473 32.838 13.4879 32.6665 13.144 32.4834L13.2893 32.2083C13.6284 32.3885 13.9801 32.5551 14.3337 32.7043L14.2097 32.9911ZM26.6998 32.002L26.5351 31.7375C26.8615 31.5341 27.1822 31.3142 27.4883 31.0836L27.6753 31.3326C27.3575 31.568 27.0291 31.7937 26.6959 32.002H26.6998ZM12.1172 31.8838C11.7868 31.6707 11.4623 31.4391 11.1484 31.1979L11.3422 30.9528C11.6444 31.1882 11.9622 31.4139 12.2838 31.6222L12.1172 31.8838ZM28.5859 30.5798L28.3776 30.3483C28.6624 30.0916 28.9395 29.8194 29.202 29.5384L29.4297 29.7506C29.1604 30.0383 28.8765 30.3173 28.5849 30.575L28.5859 30.5798ZM10.2523 30.4316C9.96169 30.1642 9.6856 29.8804 9.42306 29.5888L9.6546 29.3805C9.91131 29.6653 10.1845 29.9424 10.4645 30.204L10.2523 30.4316ZM30.196 28.8506L29.9509 28.6569C30.1873 28.3546 30.412 28.0378 30.6213 27.7152L30.8828 27.8848C30.6687 28.2171 30.4372 28.5406 30.196 28.8506ZM8.66938 28.6753C8.433 28.3614 8.20825 28.034 7.999 27.6997L8.2625 27.5351C8.46594 27.8615 8.68681 28.1822 8.91738 28.4883L8.66938 28.6753ZM31.4805 26.8666L31.2054 26.7203C31.3856 26.3813 31.5522 26.0296 31.7024 25.676L31.993 25.7971C31.837 26.1604 31.6646 26.5198 31.4805 26.8666ZM7.41581 26.6729L7.41 26.6612C7.23272 26.3135 7.069 25.956 6.92563 25.5956L7.21625 25.4784C7.35866 25.8291 7.5185 26.1798 7.69191 26.5188L7.69772 26.5305L7.41581 26.6729ZM32.4038 24.6898L32.1073 24.593C32.2255 24.2277 32.3301 23.8528 32.4163 23.4789L32.7196 23.5487C32.6314 23.9323 32.5258 24.3159 32.4038 24.6898ZM6.5265 24.4787C6.41025 24.1028 6.31047 23.7172 6.22813 23.3336L6.53231 23.2687C6.61272 23.6436 6.71056 24.0204 6.82294 24.3876L6.5265 24.4787ZM32.9366 22.3852L32.6285 22.3416C32.6828 21.9609 32.7196 21.5734 32.7399 21.1907L33.0509 21.2072C33.0305 21.5995 32.9918 21.9957 32.9366 22.3852ZM6.03438 22.1662C5.98594 21.7787 5.95494 21.3796 5.9375 20.9863L6.24847 20.9757C6.26203 21.3632 6.29303 21.7507 6.33953 22.1285L6.03438 22.1662ZM32.7544 20.035C32.7409 19.6475 32.7108 19.26 32.6643 18.8822L32.9734 18.8444C33.0208 19.2319 33.0528 19.632 33.0703 20.0243L32.7544 20.035ZM6.25816 19.8219L5.94719 19.8025C5.96753 19.4102 6.00628 19.0139 6.06053 18.6245L6.3686 18.6681C6.31531 19.0469 6.2785 19.4344 6.25816 19.8219ZM32.4696 17.7449C32.3892 17.37 32.2914 16.9931 32.179 16.626L32.4813 16.5281C32.5965 16.904 32.6973 17.2896 32.7787 17.6742L32.4696 17.7449ZM6.57978 17.5298L6.27656 17.4601C6.36472 17.0726 6.47031 16.6938 6.59238 16.3198L6.88881 16.4167C6.76966 16.781 6.666 17.1559 6.57978 17.5298ZM31.7925 15.5322C31.6481 15.1777 31.4873 14.8231 31.3081 14.4802L31.5852 14.3387C31.7644 14.6904 31.9291 15.0518 32.0763 15.415L31.7925 15.5322ZM7.29375 15.3317L7.00313 15.2106C7.15619 14.8483 7.32669 14.4889 7.51075 14.145L7.78588 14.2903C7.60763 14.6265 7.441 14.9781 7.29375 15.3317ZM8.37197 13.2896L8.11041 13.121C8.32353 12.7907 8.5541 12.4662 8.79531 12.1523L9.04138 12.346C8.80597 12.6531 8.58025 12.967 8.37197 13.2896ZM9.79022 11.4674L9.56256 11.2552C9.82994 10.9646 10.1138 10.6885 10.4054 10.425L10.6137 10.6565C10.3288 10.9094 10.0518 11.1864 9.79022 11.4674ZM11.5049 9.91737L11.3179 9.66841C11.6308 9.43203 11.9593 9.20631 12.2935 8.99803L12.4582 9.26153C12.1317 9.46981 11.811 9.68972 11.5049 9.92028V9.91737ZM26.7191 9.37681L26.7017 9.36519L26.8712 9.10362L26.8887 9.11428L26.7191 9.37681ZM25.7048 8.78006C25.3658 8.59987 25.0141 8.43325 24.6605 8.28406L24.7816 7.99344C25.1439 8.1465 25.5033 8.317 25.8473 8.50106L25.7048 8.78006ZM13.4637 8.69578L13.3223 8.41872L13.3397 8.41C13.6846 8.23466 14.0411 8.07191 14.3986 7.92562L14.5158 8.21625C14.1661 8.35866 13.8183 8.51753 13.4812 8.689L13.4637 8.69578ZM23.5775 7.88397C23.2123 7.76578 22.8373 7.66212 22.4624 7.57687L22.5322 7.27366C22.9197 7.36181 23.2994 7.46741 23.6734 7.5885L23.5775 7.88397ZM15.6056 7.82584L15.5146 7.52844C15.8904 7.41316 16.276 7.31241 16.6596 7.23006L16.7245 7.53425C16.3487 7.61562 15.9728 7.7125 15.6056 7.82584ZM21.3213 7.36762C20.9405 7.31434 20.553 7.2785 20.1704 7.25816L20.1859 6.94719C20.5782 6.96753 20.9744 7.00434 21.3639 7.05859L21.3213 7.36762ZM17.8609 7.34244L17.8221 7.03341C18.2096 6.98497 18.6088 6.953 19.0021 6.93653L19.0137 7.2475C18.6339 7.26397 18.2455 7.29497 17.8648 7.34244H17.8609Z" fill="#808080"/>
<path d="M19.5 30.8714C25.2291 30.8714 29.8734 26.2271 29.8734 20.4981C29.8734 14.769 25.2291 10.1247 19.5 10.1247C13.7709 10.1247 9.12663 14.769 9.12663 20.4981C9.12663 26.2271 13.7709 30.8714 19.5 30.8714Z" fill="#000080"/>
<path d="M23.7964 19.2387C25.4743 19.2387 26.8344 17.8785 26.8344 16.2007C26.8344 14.5228 25.4743 13.1627 23.7964 13.1627C22.1186 13.1627 20.7584 14.5228 20.7584 16.2007C20.7584 17.8785 22.1186 19.2387 23.7964 19.2387Z" fill="white"/>
<path d="M29.8734 13.1637C31.5518 13.1637 32.9123 11.8031 32.9123 10.1247C32.9123 8.44631 31.5518 7.08572 29.8734 7.08572C28.195 7.08572 26.8344 8.44631 26.8344 10.1247C26.8344 11.8031 28.195 13.1637 29.8734 13.1637Z" fill="#000080"/>
<path d="M16.6906 25.6847V24.9194H13.3281V18.8783H12.4562V25.6847H16.6906Z" fill="white"/>
<path d="M21.3561 25.6847V20.7906H20.5811V23.4886C20.5811 24.4874 20.058 25.1413 19.2462 25.1413C19.1149 25.1536 18.9826 25.1377 18.858 25.0944C18.7335 25.0512 18.6197 24.9817 18.5244 24.8907C18.429 24.7996 18.3544 24.6892 18.3054 24.5668C18.2564 24.4444 18.2344 24.3129 18.2406 24.1812V20.7906H17.4656V24.4883C17.4656 25.3002 18.0721 25.8233 19.0243 25.8233C19.3525 25.8368 19.6781 25.7604 19.9661 25.6025C20.2541 25.4446 20.4935 25.2111 20.6586 24.9272V25.6838H21.359" fill="white"/>
<path d="M27.0475 25.6663V25.0783C26.9927 25.0918 26.9364 25.098 26.8799 25.0967C26.6097 25.0967 26.4595 24.9562 26.4595 24.7092V21.988C26.4595 21.1161 25.825 20.6531 24.6189 20.6531C23.4331 20.6531 22.7046 21.1103 22.6581 22.2399H23.4428C23.5077 21.6422 23.8633 21.368 24.5908 21.368C25.2912 21.368 25.6835 21.6296 25.6835 22.0965V22.3019C25.6835 22.6283 25.4898 22.7688 24.8717 22.8434C24.3373 22.8672 23.8091 22.9677 23.3033 23.1418C23.0427 23.2331 22.8183 23.4059 22.6636 23.6347C22.5088 23.8634 22.4318 24.1359 22.444 24.4118C22.444 25.2992 23.0602 25.8213 24.0502 25.8213C24.3615 25.8208 24.6693 25.7567 24.955 25.6331C25.2407 25.5095 25.4981 25.329 25.7116 25.1025C25.7532 25.2848 25.8551 25.4476 26.0009 25.5646C26.1467 25.6815 26.3278 25.7457 26.5147 25.7467C26.6951 25.744 26.8742 25.7156 27.0466 25.6625M25.6835 23.9914C25.6397 24.3372 25.4611 24.6518 25.1867 24.8667C24.9123 25.0817 24.5641 25.1796 24.2178 25.1393C23.6114 25.1393 23.2558 24.9243 23.2558 24.3924C23.2558 23.879 23.6017 23.6552 24.4319 23.5332C24.8609 23.513 25.2835 23.4216 25.6826 23.2629L25.6835 23.9914Z" fill="white"/>
</g>
</g>
<rect x="1.05" y="1.05" width="37.9" height="37.9" rx="7.35" stroke="white" stroke-opacity="0.15" stroke-width="2.1"/>
<defs>
<filter id="filter0_d_1_20" x="-5.71428" y="-5.71428" width="51.4286" height="51.4286" filterUnits="userSpaceOnUse" color-interpolation-filters="sRGB">
<feFlood flood-opacity="0" result="BackgroundImageFix"/>
<feColorMatrix in="SourceAlpha" type="matrix" values="0 0 0 0 0 0 0 0 0 0 0 0 0 0 0 0 0 0 127 0" result="hardAlpha"/>
<feOffset/>
<feGaussianBlur stdDeviation="2.85714"/>
<feComposite in2="hardAlpha" operator="out"/>
<feColorMatrix type="matrix" values="0 0 0 0 0 0 0 0 0 0 0 0 0 0 0 0 0 0 0.25 0"/>
<feBlend mode="normal" in2="BackgroundImageFix" result="effect1_dropShadow_1_20"/>
<feBlend mode="normal" in="SourceGraphic" in2="effect1_dropShadow_1_20" result="shape"/>
</filter>
<linearGradient id="paint0_linear_1_20" x1="20" y1="0" x2="20" y2="40" gradientUnits="userSpaceOnUse">
<stop stop-color="#0C1930"/>
<stop offset="1" stop-color="#132E48"/>
</linearGradient>
<clipPath id="clip0_1_20">
<rect width="40" height="40" rx="8.4" fill="white"/>
</clipPath>
</defs>
</svg>
