<svg width="40" height="40" viewBox="0 0 40 40" fill="none" xmlns="http://www.w3.org/2000/svg">
<g clip-path="url(#clip0_2_2)">
<rect width="40" height="40" rx="8.4" fill="url(#paint0_linear_2_2)"/>
<g filter="url(#filter0_d_2_2)">
<path d="M20.5425 32.25L19.8854 32.0321C19.8854 32.0321 19.9729 28.7071 18.7697 28.4735C17.9822 27.5565 18.8861 -10.6749 21.7649 28.3431C21.2187 28.6202 20.8008 29.0977 20.5985 29.6758C20.4901 30.5295 20.4713 31.3923 20.5425 32.25Z" fill="url(#paint1_linear_2_2)"/>
<path d="M20.8977 29.0379C22.6474 27.7208 23.9873 25.9342 24.7617 23.8858C25.5362 21.8373 25.7134 19.6112 25.2727 17.466C23.9865 11.7916 20.9406 9.92612 20.6125 9.21387C20.3294 8.77036 20.0878 8.30172 19.8906 7.81387L20.133 23.6242C20.133 23.6242 19.6307 28.456 20.8977 29.0379Z" fill="url(#paint2_linear_2_2)"/>
<path d="M19.5511 29.2479C19.5511 29.2479 14.1953 25.6 14.505 19.1469C14.5339 17.2014 14.98 15.2849 15.813 13.5266C16.6461 11.7683 17.8469 10.2093 19.3341 8.95487C19.5079 8.80722 19.646 8.62209 19.738 8.41341C19.83 8.20473 19.8735 7.97791 19.8653 7.75C20.1986 8.4675 20.1444 18.4626 20.1794 19.6316C20.315 24.179 19.9265 28.3895 19.5511 29.2479Z" fill="url(#paint3_linear_2_2)"/>
</g>
</g>
<rect x="1.05" y="1.05" width="37.9" height="37.9" rx="7.35" stroke="white" stroke-opacity="0.15" stroke-width="2.1"/>
<defs>
<filter id="filter0_d_2_2" x="-5.71428" y="-5.71428" width="51.4286" height="51.4286" filterUnits="userSpaceOnUse" color-interpolation-filters="sRGB">
<feFlood flood-opacity="0" result="BackgroundImageFix"/>
<feColorMatrix in="SourceAlpha" type="matrix" values="0 0 0 0 0 0 0 0 0 0 0 0 0 0 0 0 0 0 127 0" result="hardAlpha"/>
<feOffset/>
<feGaussianBlur stdDeviation="2.85714"/>
<feComposite in2="hardAlpha" operator="out"/>
<feColorMatrix type="matrix" values="0 0 0 0 0 0 0 0 0 0 0 0 0 0 0 0 0 0 0.25 0"/>
<feBlend mode="normal" in2="BackgroundImageFix" result="effect1_dropShadow_2_2"/>
<feBlend mode="normal" in="SourceGraphic" in2="effect1_dropShadow_2_2" result="shape"/>
</filter>
<linearGradient id="paint0_linear_2_2" x1="20" y1="0" x2="20" y2="40" gradientUnits="userSpaceOnUse">
<stop stop-color="#0F300C"/>
<stop offset="1" stop-color="#134824"/>
</linearGradient>
<linearGradient id="paint1_linear_2_2" x1="16.1252" y1="20.2208" x2="23.6779" y2="22.7837" gradientUnits="userSpaceOnUse">
<stop offset="0.231" stop-color="#999875"/>
<stop offset="0.563" stop-color="#9B9977"/>
<stop offset="0.683" stop-color="#A09F7E"/>
<stop offset="0.768" stop-color="#A9A889"/>
<stop offset="0.837" stop-color="#B7B69A"/>
<stop offset="0.896" stop-color="#C9C7B0"/>
<stop offset="0.948" stop-color="#DEDDCB"/>
<stop offset="0.994" stop-color="#F8F6EB"/>
<stop offset="1" stop-color="#FBF9EF"/>
</linearGradient>
<linearGradient id="paint2_linear_2_2" x1="18.8948" y1="7.7009" x2="22.2339" y2="28.5512" gradientUnits="userSpaceOnUse">
<stop stop-color="#48A547"/>
<stop offset="1" stop-color="#3F9143"/>
</linearGradient>
<linearGradient id="paint3_linear_2_2" x1="14.0443" y1="19.7856" x2="23.0048" y2="16.7848" gradientUnits="userSpaceOnUse">
<stop stop-color="#41A247"/>
<stop offset="0.352" stop-color="#4BA74B"/>
<stop offset="0.956" stop-color="#67B554"/>
<stop offset="1" stop-color="#69B655"/>
</linearGradient>
<clipPath id="clip0_2_2">
<rect width="40" height="40" rx="8.4" fill="white"/>
</clipPath>
</defs>
</svg>
